:SAMPLES-PER-SECOND 30
:FULLY-SPECIFIED
:DEGREES
119
root  -23.5666 40.3334 30.4078 172.157 26.9518 172.389
RightUpLeg  1.77328 -14.7496 -4.39388
RightLeg  19.7301 -4.61728 -0.373313
RightFoot  -16.4312 -0.379748 -6.04297
RightToes  0.00048216 0.542163 -0.142577
Spine  12.7891 2.46399 7.53269
Spine1  7.12834 5.82435 -8.59715
HEad  -3.60331 -21.5043 3.80741
LeftShoulder1  6.6245 -11.2048 -38.8462
LeftArm  -26.2223 45.8058 -16.1437
LeftForeArm  132.385 -65.9312 -153.914
LeftHand  -0.25398 0.0180481 5.50724
RightShoulder  5.11851 9.3998 33.7219
RightArm  -3.33351 -15.0718 35.2201
RightForeArm  81.2822 76.2604 121.515
RightHand  -0.081299 -16.7477 -0.392419
LeftUpLeg  -13.1528 20.031 1.46079
LeftLeg  24.2025 5.18021 2.86458
LeftFoot  0.75491 0.426135 -4.06593
LeftToes  1.06246e-005 4.65855e-005 -8.18505e-006
120
root  -22.6112 40.3695 29.9457 171.78 32.2171 171.994
RightUpLeg  4.12405 -11.3876 -3.77477
RightLeg  17.0358 -3.48555 1.15338
RightFoot  -16.4533 -0.423482 -6.98092
RightToes  0.00048216 0.542163 -0.142577
Spine  12.5328 2.73336 8.79846
Spine1  7.44268 6.39597 -9.48736
HEad  -3.76117 -18.885 2.84649
LeftShoulder1  6.68624 -11.2696 -39.0569
LeftArm  -26.3954 45.312 -15.6188
LeftForeArm  131.967 -66.1363 -153.63
LeftHand  -0.25398 0.0180481 5.50724
RightShoulder  5.12352 9.47294 33.5382
RightArm  -3.18463 -14.769 35.615
RightForeArm  79.7569 76.1879 121.593
RightHand  -0.0394133 -18.0764 -0.803655
LeftUpLeg  -15.437 21.9491 -2.40765
LeftLeg  22.9158 5.43562 2.84005
LeftFoot  1.52106 0.431862 -3.91052
LeftToes  1.06246e-005 4.65855e-005 -8.18505e-006
121
root  -21.603 40.2953 29.4557 171.203 36.9542 171.761
RightUpLeg  6.745 -9.48564 -3.26677
RightLeg  15.0141 -1.32555 2.30552
RightFoot  -16.9802 -0.498198 -7.77502
RightToes  0.00048216 0.542163 -0.142577
Spine  12.69 2.7263 9.71779
Spine1  7.81933 6.5776 -9.89582
HEad  -4.4323 -16.6323 2.45172
LeftShoulder1  6.67141 -11.1681 -39.2581
LeftArm  -26.719 44.65 -15.1801
LeftForeArm  131.147 -66.3501 -153.288
LeftHand  -0.25398 0.0180481 5.50724
RightShoulder  5.16431 9.54109 33.6436
RightArm  -3.05289 -13.984 36.0785
RightForeArm  77.5797 76.2168 120.981
RightHand  0.129036 -18.4118 -2.25579
LeftUpLeg  -17.2008 23.0504 -5.99214
LeftLeg  19.6617 4.9656 2.41915
LeftFoot  1.74606 0.462187 -4.1221
LeftToes  1.06246e-005 4.65855e-005 -8.18505e-006
122
root  -20.4979 40.1247 28.9161 170.775 41.6719 171.582
RightUpLeg  9.23828 -8.62146 -2.89785
RightLeg  13.6432 2.0021 3.16903
RightFoot  -17.794 -0.582527 -8.18786
RightToes  0.00048216 0.542163 -0.142577
Spine  12.4824 2.86042 10.3038
Spine1  8.59759 6.83484 -10.0354
HEad  -4.44739 -16.9038 2.87511
LeftShoulder1  6.62982 -11.0136 -39.4448
LeftArm  -27.0657 43.8372 -14.8656
LeftForeArm  129.93 -66.7596 -152.653
LeftHand  -0.25398 0.0180481 5.50724
RightShoulder  5.28656 9.62443 34.3165
RightArm  -3.10417 -13.0008 36.1834
RightForeArm  75.5643 76.3507 119.785
RightHand  0.266254 -18.2766 -3.44537
LeftUpLeg  -18.338 22.4915 -8.46404
LeftLeg  14.8041 5.12704 1.14337
LeftFoot  1.44588 0.434388 -3.9538
LeftToes  1.06246e-005 4.65855e-005 -8.18505e-006
123
root  -19.2886 39.9134 28.3468 170.356 46.6111 171.167
RightUpLeg  11.6515 -8.28555 -2.86113
RightLeg  12.5421 5.5052 3.72853
RightFoot  -18.5 -0.67455 -8.76354
RightToes  0.00048216 0.542163 -0.142577
Spine  11.9221 3.32421 10.4343
Spine1  9.70093 7.41885 -10.0976
HEad  -4.45991 -16.1918 3.02823
LeftShoulder1  6.5822 -10.8692 -39.5651
LeftArm  -27.3753 43.0264 -14.7161
LeftForeArm  128.887 -67.3241 -151.814
LeftHand  -0.25398 0.0180481 5.50724
RightShoulder  5.45946 9.69382 35.399
RightArm  -3.2356 -12.1152 35.7278
RightForeArm  74.5695 76.4807 118.782
RightHand  0.26941 -18.492 -3.43289
LeftUpLeg  -18.0177 13.9177 -6.85202
LeftLeg  8.20075 13.6293 -2.63879
LeftFoot  1.54216 0.369736 -3.36024
LeftToes  1.06246e-005 4.65855e-005 -8.18505e-006
124
root  -17.9954 39.6551 27.7652 169.786 50.9277 170.65
RightUpLeg  14.215 -8.25826 -3.08831
RightLeg  11.7395 7.85676 4.00814
RightFoot  -19.3035 -0.795554 -9.53056
RightToes  0.00048216 0.542163 -0.142577
Spine  11.5177 3.72789 9.90335
Spine1  10.5775 7.75891 -9.67459
HEad  -5.58629 -10.9224 1.96791
LeftShoulder1  6.52364 -10.7034 -39.6801
LeftArm  -27.68 42.398 -14.7739
LeftForeArm  128.45 -67.7844 -151.146
LeftHand  -0.25398 0.0180481 5.50724
RightShoulder  5.57239 9.66726 36.3195
RightArm  -2.98175 -11.3101 34.9053
RightForeArm  73.4336 76.6009 117.768
RightHand  0.252802 -18.654 -3.25867
LeftUpLeg  -17.5548 2.11188 -3.44274
LeftLeg  0.278604 26.058 -7.58135
LeftFoot  2.047 0.396153 -3.47849
LeftToes  1.06246e-005 4.65855e-005 -8.18505e-006
125
root  -16.6169 39.2987 27.1535 169.459 53.9377 170.551
RightUpLeg  16.7824 -8.41116 -3.22287
RightLeg  11.7104 9.19434 4.24853
RightFoot  -20.3414 -0.90728 -9.76237
RightToes  0.00048216 0.542163 -0.142577
Spine  11.2623 3.79174 9.00771
Spine1  11.0626 7.5044 -8.75701
HEad  -6.43714 -7.96046 1.3544
LeftShoulder1  6.47978 -10.5703 -39.7953
LeftArm  -27.8703 41.792 -15.0311
LeftForeArm  128.346 -68.0421 -150.775
LeftHand  -0.25398 0.0180481 5.50724
RightShoulder  5.57277 9.54894 36.6946
RightArm  -2.17973 -10.6249 33.9188
RightForeArm  71.1436 76.7077 116.543
RightHand  0.328298 -18.2165 -4.00502
LeftUpLeg  -18.3597 0.0208367 -3.47191
LeftLeg  -3.71862 28.6024 -9.3122
LeftFoot  1.58291 0.551759 -4.97497
LeftToes  1.06246e-005 4.65855e-005 -8.18505e-006
126
root  -15.1404 38.8967 26.4929 169.397 56.4842 170.604
RightUpLeg  19.0479 -8.57928 -3.39537
RightLeg  12.5378 11.008 4.50641
RightFoot  -20.9222 -0.930532 -9.39155
RightToes  0.00048216 0.542163 -0.142577
Spine  10.8675 3.84685 8.3303
Spine1  11.6639 7.43212 -8.33393
HEad  -7.02466 -6.63877 1.31551
LeftShoulder1  6.46694 -10.5681 -39.7159
LeftArm  -27.6508 40.9474 -15.3165
LeftForeArm  128.337 -68.157 -150.611
LeftHand  -0.25398 0.0180481 5.50724
RightShoulder  5.53609 9.47295 36.6632
RightArm  -1.23363 -10.3888 32.7575
RightForeArm  68.8074 76.6683 116.287
RightHand  0.474439 -17.4934 -5.53802
LeftUpLeg  -19.702 -0.00080524 -4.13633
LeftLeg  -2.36299 28.3159 -8.95575
LeftFoot  0.342022 0.563265 -5.47526
LeftToes  1.06246e-005 4.65855e-005 -8.18505e-006
127
root  -13.5331 38.5228 25.7689 168.633 59.6857 169.848
RightUpLeg  21.0292 -8.76635 -4.33114
RightLeg  14.3721 14.0812 4.82049
RightFoot  -20.7769 -0.890222 -9.08527
RightToes  0.00048216 0.542163 -0.142577
Spine  10.4462 4.32332 7.70616
Spine1  12.398 8.13353 -8.80064
HEad  -7.50111 -5.52658 1.73463
LeftShoulder1  6.46359 -10.6584 -39.4159
LeftArm  -26.9427 40.1226 -15.384
LeftForeArm  128.749 -68.1186 -150.714
LeftHand  -0.25398 0.0180481 5.50724
RightShoulder  5.54189 9.52685 36.5349
RightArm  -0.543167 -10.8286 31.501
RightForeArm  67.477 76.4185 117.696
RightHand  0.65045 -16.6987 -7.61748
LeftUpLeg  -21.2241 2.1324 -5.87683
LeftLeg  3.16312 24.6019 -6.30722
LeftFoot  0.516432 0.207869 -2.14273
LeftToes  1.06246e-005 4.65855e-005 -8.18505e-006
128
root  -11.7979 38.2227 25.0185 166.263 62.6753 167.529
RightUpLeg  22.603 -8.48905 -6.29464
RightLeg  17.5599 17.0534 5.78436
RightFoot  -19.7312 -0.726316 -8.18704
RightToes  0.00048216 0.542163 -0.142577
Spine  10.3408 4.95678 5.71797
Spine1  12.5419 8.71039 -8.88804
HEad  -7.86618 -4.4346 2.58442
LeftShoulder1  6.47107 -10.7254 -39.262
LeftArm  -26.0436 39.7589 -15.2927
LeftForeArm  129.482 -68.0926 -150.84
LeftHand  -0.25398 0.0180481 5.50724
RightShoulder  5.56756 9.61376 36.451
RightArm  -0.132168 -11.6983 30.4113
RightForeArm  66.201 76.1686 119.069
RightHand  0.804702 -15.4696 -10.1511
LeftUpLeg  -22.8632 8.77242 -10.3617
LeftLeg  10.4035 15.3469 -1.66774
LeftFoot  2.76509 -0.594275 4.60119
LeftToes  1.06246e-005 4.65855e-005 -8.18505e-006
